<?xml version="1.0" encoding="UTF-8"?>
<svg id="Layer_1" data-name="Layer 1" xmlns="http://www.w3.org/2000/svg" xmlns:xlink="http://www.w3.org/1999/xlink"
  viewBox="110 110 860 870">
  <defs>
    <style>
      .cls-1 {
        fill: none;
      }

      .cls-2 {
        fill: #e96a4d;
      }

      .cls-3 {
        fill: #d85f3e;
      }

      .cls-4 {
        clip-path: url(#clippath);
      }
    </style>
    <clipPath id="clippath">
      <rect class="cls-1" x="593.79" y="736.08" width="83.22" height="83.22" />
    </clipPath>
  </defs>
  <g class="cls-4">
    <path class="cls-2"
      d="M629.78,766.61h5.51c1.84,0,3.21.44,4.1,1.34.89.9,1.33,2.14,1.33,3.71,0,.74-.11,1.42-.34,2.02-.23.6-.57,1.12-1.02,1.55-.45.44-1.01.77-1.69,1.01-.68.24-1.47.36-2.37.36h-5.53v-9.99ZM622.91,761.05v33.29h6.86v-12.19h5.47l6.24,12.19h7.36v-.32l-7.2-13.61c.91-.41,1.74-.9,2.47-1.46.73-.56,1.36-1.23,1.88-1.98s.91-1.62,1.19-2.58c.27-.97.41-2.06.41-3.28,0-1.65-.28-3.1-.85-4.35-.56-1.25-1.37-2.29-2.42-3.14-1.05-.85-2.34-1.49-3.87-1.93-1.53-.44-3.25-.65-5.17-.65h-12.37ZM635.4,744.4c18.43,0,33.29,14.86,33.29,33.29s-14.86,33.29-33.29,33.29-33.29-14.86-33.29-33.29,14.86-33.29,33.29-33.29ZM635.4,736.08c-22.93,0-41.61,18.68-41.61,41.61s18.68,41.61,41.61,41.61,41.61-18.68,41.61-41.61-18.68-41.61-41.61-41.61Z" />
  </g>
  <g>
    <path class="cls-3"
      d="M540,953.96c-228.26,0-413.97-185.7-413.97-413.96S311.74,126.04,540,126.04s413.97,185.7,413.97,413.97-185.7,413.96-413.97,413.96M540,167.33c-205.5,0-372.67,167.17-372.67,372.67s167.17,372.65,372.67,372.65,372.67-167.17,372.67-372.65-167.17-372.67-372.67-372.67" />
    <polygon class="cls-2" points="542.09 472.58 674.43 304.77 626.88 267.73 494.53 435.55 542.09 472.58" />
    <polygon class="cls-2" points="610.25 502.52 664.81 511.83 691.54 362.34 636.98 353.03 610.25 502.52" />
    <polygon class="cls-2" points="502.21 478.11 412.19 341.44 368.12 375.63 458.12 512.28 502.21 478.11" />
    <polygon class="cls-2" points="559.06 312.46 443.21 275.21 428.24 328.8 544.11 366.04 559.06 312.46" />
    <polygon class="cls-2" points="296.7 505.93 483.21 625.68 516.02 577.23 329.5 457.47 296.7 505.93" />
    <polygon class="cls-2"
      points="783.3 491.85 748.49 445.17 576.12 584.03 576.12 486.72 517.33 486.72 517.33 812.25 576.12 812.25 576.12 658.79 783.3 491.85" />
  </g>
</svg>