<svg width="1121" height="44" viewBox="0 0 1121 44" fill="none" xmlns="http://www.w3.org/2000/svg">
<path d="M-0.000351548 36.48V4.31998H13.0076C15.3756 4.31998 17.5516 4.71998 19.5356 5.51998C21.5516 6.31998 23.2796 7.43998 24.7197 8.87998C26.1597 10.288 27.2797 11.984 28.0796 13.968C28.8796 15.92 29.2796 18.064 29.2796 20.4C29.2796 22.736 28.8796 24.896 28.0796 26.88C27.2797 28.864 26.1597 30.56 24.7197 31.968C23.2796 33.376 21.5516 34.48 19.5356 35.28C17.5516 36.08 15.3756 36.48 13.0076 36.48H-0.000351548ZM7.39165 29.28H13.0076C14.2556 29.28 15.4076 29.072 16.4636 28.656C17.5196 28.208 18.4156 27.6 19.1516 26.832C19.8876 26.064 20.4636 25.136 20.8796 24.048C21.2956 22.96 21.5036 21.744 21.5036 20.4C21.5036 19.056 21.2956 17.84 20.8796 16.752C20.4636 15.664 19.8876 14.736 19.1516 13.968C18.4156 13.2 17.5196 12.608 16.4636 12.192C15.4076 11.744 14.2556 11.52 13.0076 11.52H7.39165V29.28ZM42.2321 20.4C42.2321 18.128 42.6641 15.984 43.5281 13.968C44.4241 11.952 45.6241 10.192 47.1281 8.68798C48.6321 7.18398 50.3921 5.99998 52.4081 5.13598C54.4561 4.27198 56.6321 3.83998 58.9361 3.83998C61.2401 3.83998 63.4001 4.27198 65.4161 5.13598C67.4641 5.99998 69.2401 7.18398 70.7441 8.68798C72.2801 10.192 73.4801 11.952 74.3441 13.968C75.2081 15.984 75.6401 18.128 75.6401 20.4C75.6401 22.704 75.2081 24.864 74.3441 26.88C73.4801 28.864 72.2801 30.608 70.7441 32.112C69.2401 33.616 67.4641 34.8 65.4161 35.664C63.4001 36.528 61.2401 36.96 58.9361 36.96C56.6321 36.96 54.4561 36.528 52.4081 35.664C50.3921 34.8 48.6321 33.616 47.1281 32.112C45.6241 30.608 44.4241 28.864 43.5281 26.88C42.6641 24.864 42.2321 22.704 42.2321 20.4ZM50.0081 20.352C50.0081 21.632 50.2321 22.832 50.6801 23.952C51.1601 25.072 51.8001 26.048 52.6001 26.88C53.4321 27.712 54.3761 28.368 55.4321 28.848C56.5201 29.328 57.6881 29.568 58.9361 29.568C60.1841 29.568 61.3361 29.328 62.3921 28.848C63.4801 28.368 64.4241 27.712 65.2241 26.88C66.0561 26.048 66.6961 25.072 67.1441 23.952C67.6241 22.832 67.8641 21.632 67.8641 20.352C67.8641 19.104 67.6241 17.936 67.1441 16.848C66.6961 15.728 66.0561 14.752 65.2241 13.92C64.4241 13.088 63.4801 12.432 62.3921 11.952C61.3041 11.472 60.1521 11.232 58.9361 11.232C57.7201 11.232 56.5681 11.472 55.4801 11.952C54.3921 12.432 53.4321 13.088 52.6001 13.92C51.8001 14.752 51.1601 15.728 50.6801 16.848C50.2321 17.936 50.0081 19.104 50.0081 20.352ZM88.5821 20.4C88.5821 18.128 89.0141 15.984 89.8781 13.968C90.7741 11.952 91.9741 10.192 93.4781 8.68798C94.9821 7.18398 96.7421 5.99998 98.7581 5.13598C100.806 4.27198 102.982 3.83998 105.286 3.83998C107.59 3.83998 109.75 4.27198 111.766 5.13598C113.814 5.99998 115.59 7.18398 117.094 8.68798C118.63 10.192 119.83 11.952 120.694 13.968C121.558 15.984 121.99 18.128 121.99 20.4C121.99 22.704 121.558 24.864 120.694 26.88C119.83 28.864 118.63 30.608 117.094 32.112C115.59 33.616 113.814 34.8 111.766 35.664C109.75 36.528 107.59 36.96 105.286 36.96C102.982 36.96 100.806 36.528 98.7581 35.664C96.7421 34.8 94.9821 33.616 93.4781 32.112C91.9741 30.608 90.7741 28.864 89.8781 26.88C89.0141 24.864 88.5821 22.704 88.5821 20.4ZM96.3581 20.352C96.3581 21.632 96.5821 22.832 97.0301 23.952C97.5101 25.072 98.1501 26.048 98.9501 26.88C99.7821 27.712 100.726 28.368 101.782 28.848C102.87 29.328 104.038 29.568 105.286 29.568C106.534 29.568 107.686 29.328 108.742 28.848C109.83 28.368 110.774 27.712 111.574 26.88C112.406 26.048 113.046 25.072 113.494 23.952C113.974 22.832 114.214 21.632 114.214 20.352C114.214 19.104 113.974 17.936 113.494 16.848C113.046 15.728 112.406 14.752 111.574 13.92C110.774 13.088 109.83 12.432 108.742 11.952C107.654 11.472 106.502 11.232 105.286 11.232C104.07 11.232 102.918 11.472 101.83 11.952C100.742 12.432 99.7821 13.088 98.9501 13.92C98.1501 14.752 97.5101 15.728 97.0301 16.848C96.5821 17.936 96.3581 19.104 96.3581 20.352ZM150.196 4.31998C154.42 4.31998 157.684 5.24798 159.988 7.10398C162.324 8.92798 163.492 11.536 163.492 14.928C163.492 17.392 162.884 19.44 161.668 21.072C160.452 22.704 158.74 23.904 156.532 24.672L163.588 36.48H154.9L148.564 25.632H144.004V36.48H136.612V4.31998H150.196ZM150.004 19.824C151.828 19.824 153.236 19.456 154.228 18.72C155.22 17.952 155.716 16.912 155.716 15.6C155.716 14.288 155.22 13.264 154.228 12.528C153.236 11.76 151.828 11.376 150.004 11.376H144.004V19.824H150.004ZM177.979 13.824C177.979 10.624 179.067 8.15998 181.243 6.43198C183.451 4.70398 186.587 3.83998 190.651 3.83998C194.843 3.83998 198.011 4.78398 200.155 6.67198C202.299 8.52798 203.403 11.104 203.467 14.4H195.883C195.883 13.056 195.451 11.984 194.587 11.184C193.723 10.384 192.331 9.98398 190.411 9.98398C188.843 9.98398 187.627 10.288 186.763 10.896C185.899 11.472 185.467 12.304 185.467 13.392C185.467 14.064 185.643 14.64 185.995 15.12C186.347 15.568 186.811 15.952 187.387 16.272C187.995 16.592 188.683 16.864 189.451 17.088C190.251 17.28 191.083 17.472 191.947 17.664C193.291 17.952 194.683 18.272 196.123 18.624C197.563 18.944 198.875 19.44 200.059 20.112C201.275 20.752 202.267 21.632 203.035 22.752C203.803 23.872 204.187 25.36 204.187 27.216C204.187 30.16 203.099 32.528 200.923 34.32C198.779 36.08 195.467 36.96 190.987 36.96C186.411 36.96 182.971 36.016 180.667 34.128C178.395 32.24 177.259 29.68 177.259 26.448H184.843C185.099 29.392 187.163 30.864 191.035 30.864C192.763 30.864 194.091 30.576 195.019 30C195.979 29.424 196.459 28.624 196.459 27.6C196.459 26.896 196.267 26.32 195.883 25.872C195.531 25.424 195.035 25.056 194.395 24.768C193.755 24.48 193.003 24.24 192.139 24.048C191.307 23.856 190.427 23.68 189.499 23.52C188.187 23.264 186.843 22.976 185.467 22.656C184.123 22.336 182.891 21.84 181.771 21.168C180.651 20.464 179.739 19.536 179.035 18.384C178.331 17.232 177.979 15.712 177.979 13.824ZM262.34 -2.19345e-05H269.156V43.2H262.34V-2.19345e-05ZM333.679 4.31998L339.919 25.872L346.111 4.31998H353.263L359.455 25.872L365.743 4.31998H373.663L364.111 36.48H356.047L349.663 15.264L343.327 36.48H335.263L325.711 4.31998H333.679ZM386.99 4.31998H394.382V36.48H386.99V4.31998ZM410.7 4.31998H420.012L431.772 25.68V4.31998H439.164V36.48H429.9L418.092 15.072V36.48H410.7V4.31998ZM455.503 36.48V4.31998H468.511C470.879 4.31998 473.055 4.71998 475.039 5.51998C477.055 6.31998 478.783 7.43998 480.223 8.87998C481.663 10.288 482.783 11.984 483.583 13.968C484.383 15.92 484.783 18.064 484.783 20.4C484.783 22.736 484.383 24.896 483.583 26.88C482.783 28.864 481.663 30.56 480.223 31.968C478.783 33.376 477.055 34.48 475.039 35.28C473.055 36.08 470.879 36.48 468.511 36.48H455.503ZM462.895 29.28H468.511C469.759 29.28 470.911 29.072 471.967 28.656C473.023 28.208 473.919 27.6 474.655 26.832C475.391 26.064 475.967 25.136 476.383 24.048C476.799 22.96 477.007 21.744 477.007 20.4C477.007 19.056 476.799 17.84 476.383 16.752C475.967 15.664 475.391 14.736 474.655 13.968C473.919 13.2 473.023 12.608 471.967 12.192C470.911 11.744 469.759 11.52 468.511 11.52H462.895V29.28ZM497.735 20.4C497.735 18.128 498.167 15.984 499.031 13.968C499.927 11.952 501.127 10.192 502.631 8.68798C504.135 7.18398 505.895 5.99998 507.911 5.13598C509.959 4.27198 512.135 3.83998 514.439 3.83998C516.743 3.83998 518.903 4.27198 520.919 5.13598C522.967 5.99998 524.743 7.18398 526.247 8.68798C527.783 10.192 528.983 11.952 529.847 13.968C530.711 15.984 531.143 18.128 531.143 20.4C531.143 22.704 530.711 24.864 529.847 26.88C528.983 28.864 527.783 30.608 526.247 32.112C524.743 33.616 522.967 34.8 520.919 35.664C518.903 36.528 516.743 36.96 514.439 36.96C512.135 36.96 509.959 36.528 507.911 35.664C505.895 34.8 504.135 33.616 502.631 32.112C501.127 30.608 499.927 28.864 499.031 26.88C498.167 24.864 497.735 22.704 497.735 20.4ZM505.511 20.352C505.511 21.632 505.735 22.832 506.183 23.952C506.663 25.072 507.303 26.048 508.103 26.88C508.935 27.712 509.879 28.368 510.935 28.848C512.023 29.328 513.191 29.568 514.439 29.568C515.687 29.568 516.839 29.328 517.895 28.848C518.983 28.368 519.927 27.712 520.727 26.88C521.559 26.048 522.199 25.072 522.647 23.952C523.127 22.832 523.367 21.632 523.367 20.352C523.367 19.104 523.127 17.936 522.647 16.848C522.199 15.728 521.559 14.752 520.727 13.92C519.927 13.088 518.983 12.432 517.895 11.952C516.807 11.472 515.655 11.232 514.439 11.232C513.223 11.232 512.071 11.472 510.983 11.952C509.895 12.432 508.935 13.088 508.103 13.92C507.303 14.752 506.663 15.728 506.183 16.848C505.735 17.936 505.511 19.104 505.511 20.352ZM549.82 4.31998L556.06 25.872L562.252 4.31998H569.404L575.596 25.872L581.884 4.31998H589.804L580.252 36.48H572.188L565.804 15.264L559.468 36.48H551.404L541.852 4.31998H549.82ZM602.507 13.824C602.507 10.624 603.595 8.15998 605.771 6.43198C607.979 4.70398 611.115 3.83998 615.179 3.83998C619.371 3.83998 622.539 4.78398 624.683 6.67198C626.827 8.52798 627.931 11.104 627.995 14.4H620.411C620.411 13.056 619.979 11.984 619.115 11.184C618.251 10.384 616.859 9.98398 614.939 9.98398C613.371 9.98398 612.155 10.288 611.291 10.896C610.427 11.472 609.995 12.304 609.995 13.392C609.995 14.064 610.171 14.64 610.523 15.12C610.875 15.568 611.339 15.952 611.915 16.272C612.523 16.592 613.211 16.864 613.979 17.088C614.779 17.28 615.611 17.472 616.475 17.664C617.819 17.952 619.211 18.272 620.651 18.624C622.091 18.944 623.403 19.44 624.587 20.112C625.803 20.752 626.795 21.632 627.563 22.752C628.331 23.872 628.715 25.36 628.715 27.216C628.715 30.16 627.627 32.528 625.451 34.32C623.307 36.08 619.995 36.96 615.515 36.96C610.939 36.96 607.499 36.016 605.195 34.128C602.923 32.24 601.787 29.68 601.787 26.448H609.371C609.627 29.392 611.691 30.864 615.563 30.864C617.291 30.864 618.619 30.576 619.547 30C620.507 29.424 620.987 28.624 620.987 27.6C620.987 26.896 620.795 26.32 620.411 25.872C620.059 25.424 619.563 25.056 618.923 24.768C618.283 24.48 617.531 24.24 616.667 24.048C615.835 23.856 614.955 23.68 614.027 23.52C612.715 23.264 611.371 22.976 609.995 22.656C608.651 22.336 607.419 21.84 606.299 21.168C605.179 20.464 604.267 19.536 603.563 18.384C602.859 17.232 602.507 15.712 602.507 13.824ZM686.868 -2.19345e-05H693.684V43.2H686.868V-2.19345e-05ZM758.207 4.31998L764.447 25.872L770.639 4.31998H777.791L783.983 25.872L790.271 4.31998H798.191L788.639 36.48H780.575L774.191 15.264L767.855 36.48H759.791L750.239 4.31998H758.207ZM808.901 20.4C808.901 18.128 809.333 15.984 810.197 13.968C811.093 11.952 812.293 10.192 813.797 8.68798C815.301 7.18398 817.061 5.99998 819.077 5.13598C821.125 4.27198 823.301 3.83998 825.605 3.83998C827.909 3.83998 830.069 4.27198 832.085 5.13598C834.133 5.99998 835.909 7.18398 837.413 8.68798C838.949 10.192 840.149 11.952 841.013 13.968C841.877 15.984 842.309 18.128 842.309 20.4C842.309 22.704 841.877 24.864 841.013 26.88C840.149 28.864 838.949 30.608 837.413 32.112C835.909 33.616 834.133 34.8 832.085 35.664C830.069 36.528 827.909 36.96 825.605 36.96C823.301 36.96 821.125 36.528 819.077 35.664C817.061 34.8 815.301 33.616 813.797 32.112C812.293 30.608 811.093 28.864 810.197 26.88C809.333 24.864 808.901 22.704 808.901 20.4ZM816.677 20.352C816.677 21.632 816.901 22.832 817.349 23.952C817.829 25.072 818.469 26.048 819.269 26.88C820.101 27.712 821.045 28.368 822.101 28.848C823.189 29.328 824.357 29.568 825.605 29.568C826.853 29.568 828.005 29.328 829.061 28.848C830.149 28.368 831.093 27.712 831.893 26.88C832.725 26.048 833.365 25.072 833.813 23.952C834.293 22.832 834.533 21.632 834.533 20.352C834.533 19.104 834.293 17.936 833.813 16.848C833.365 15.728 832.725 14.752 831.893 13.92C831.093 13.088 830.149 12.432 829.061 11.952C827.973 11.472 826.821 11.232 825.605 11.232C824.389 11.232 823.237 11.472 822.149 11.952C821.061 12.432 820.101 13.088 819.269 13.92C818.469 14.752 817.829 15.728 817.349 16.848C816.901 17.936 816.677 19.104 816.677 20.352ZM855.251 20.4C855.251 18.128 855.683 15.984 856.547 13.968C857.443 11.952 858.643 10.192 860.147 8.68798C861.651 7.18398 863.411 5.99998 865.427 5.13598C867.475 4.27198 869.651 3.83998 871.955 3.83998C874.259 3.83998 876.419 4.27198 878.435 5.13598C880.483 5.99998 882.259 7.18398 883.763 8.68798C885.299 10.192 886.499 11.952 887.363 13.968C888.227 15.984 888.659 18.128 888.659 20.4C888.659 22.704 888.227 24.864 887.363 26.88C886.499 28.864 885.299 30.608 883.763 32.112C882.259 33.616 880.483 34.8 878.435 35.664C876.419 36.528 874.259 36.96 871.955 36.96C869.651 36.96 867.475 36.528 865.427 35.664C863.411 34.8 861.651 33.616 860.147 32.112C858.643 30.608 857.443 28.864 856.547 26.88C855.683 24.864 855.251 22.704 855.251 20.4ZM863.027 20.352C863.027 21.632 863.251 22.832 863.699 23.952C864.179 25.072 864.819 26.048 865.619 26.88C866.451 27.712 867.395 28.368 868.451 28.848C869.539 29.328 870.707 29.568 871.955 29.568C873.203 29.568 874.355 29.328 875.411 28.848C876.499 28.368 877.443 27.712 878.243 26.88C879.075 26.048 879.715 25.072 880.163 23.952C880.643 22.832 880.883 21.632 880.883 20.352C880.883 19.104 880.643 17.936 880.163 16.848C879.715 15.728 879.075 14.752 878.243 13.92C877.443 13.088 876.499 12.432 875.411 11.952C874.323 11.472 873.171 11.232 871.955 11.232C870.739 11.232 869.587 11.472 868.499 11.952C867.411 12.432 866.451 13.088 865.619 13.92C864.819 14.752 864.179 15.728 863.699 16.848C863.251 17.936 863.027 19.104 863.027 20.352ZM903.281 36.48V4.31998H916.289C918.657 4.31998 920.833 4.71998 922.817 5.51998C924.833 6.31998 926.561 7.43998 928.001 8.87998C929.441 10.288 930.561 11.984 931.361 13.968C932.161 15.92 932.561 18.064 932.561 20.4C932.561 22.736 932.161 24.896 931.361 26.88C930.561 28.864 929.441 30.56 928.001 31.968C926.561 33.376 924.833 34.48 922.817 35.28C920.833 36.08 918.657 36.48 916.289 36.48H903.281ZM910.673 29.28H916.289C917.537 29.28 918.689 29.072 919.745 28.656C920.801 28.208 921.697 27.6 922.433 26.832C923.169 26.064 923.745 25.136 924.161 24.048C924.577 22.96 924.785 21.744 924.785 20.4C924.785 19.056 924.577 17.84 924.161 16.752C923.745 15.664 923.169 14.736 922.433 13.968C921.697 13.2 920.801 12.608 919.745 12.192C918.689 11.744 917.537 11.52 916.289 11.52H910.673V29.28ZM951.248 4.31998L957.488 25.872L963.68 4.31998H970.832L977.024 25.872L983.312 4.31998H991.232L981.68 36.48H973.616L967.232 15.264L960.896 36.48H952.832L943.28 4.31998H951.248ZM1001.94 20.4C1001.94 18.128 1002.37 15.984 1003.24 13.968C1004.13 11.952 1005.33 10.192 1006.84 8.68798C1008.34 7.18398 1010.1 5.99998 1012.12 5.13598C1014.17 4.27198 1016.34 3.83998 1018.65 3.83998C1020.95 3.83998 1023.11 4.27198 1025.13 5.13598C1027.17 5.99998 1028.95 7.18398 1030.45 8.68798C1031.99 10.192 1033.19 11.952 1034.05 13.968C1034.92 15.984 1035.35 18.128 1035.35 20.4C1035.35 22.704 1034.92 24.864 1034.05 26.88C1033.19 28.864 1031.99 30.608 1030.45 32.112C1028.95 33.616 1027.17 34.8 1025.13 35.664C1023.11 36.528 1020.95 36.96 1018.65 36.96C1016.34 36.96 1014.17 36.528 1012.12 35.664C1010.1 34.8 1008.34 33.616 1006.84 32.112C1005.33 30.608 1004.13 28.864 1003.24 26.88C1002.37 24.864 1001.94 22.704 1001.94 20.4ZM1009.72 20.352C1009.72 21.632 1009.94 22.832 1010.39 23.952C1010.87 25.072 1011.51 26.048 1012.31 26.88C1013.14 27.712 1014.09 28.368 1015.14 28.848C1016.23 29.328 1017.4 29.568 1018.65 29.568C1019.89 29.568 1021.05 29.328 1022.1 28.848C1023.19 28.368 1024.13 27.712 1024.93 26.88C1025.77 26.048 1026.41 25.072 1026.85 23.952C1027.33 22.832 1027.57 21.632 1027.57 20.352C1027.57 19.104 1027.33 17.936 1026.85 16.848C1026.41 15.728 1025.77 14.752 1024.93 13.92C1024.13 13.088 1023.19 12.432 1022.1 11.952C1021.01 11.472 1019.86 11.232 1018.65 11.232C1017.43 11.232 1016.28 11.472 1015.19 11.952C1014.1 12.432 1013.14 13.088 1012.31 13.92C1011.51 14.752 1010.87 15.728 1010.39 16.848C1009.94 17.936 1009.72 19.104 1009.72 20.352ZM1063.56 4.31998C1067.78 4.31998 1071.04 5.24798 1073.35 7.10398C1075.68 8.92798 1076.85 11.536 1076.85 14.928C1076.85 17.392 1076.24 19.44 1075.03 21.072C1073.81 22.704 1072.1 23.904 1069.89 24.672L1076.95 36.48H1068.26L1061.92 25.632H1057.36V36.48H1049.97V4.31998H1063.56ZM1063.36 19.824C1065.19 19.824 1066.6 19.456 1067.59 18.72C1068.58 17.952 1069.08 16.912 1069.08 15.6C1069.08 14.288 1068.58 13.264 1067.59 12.528C1066.6 11.76 1065.19 11.376 1063.36 11.376H1057.36V19.824H1063.36ZM1120.91 36.48H1111.45L1102.09 24.336H1099.35V36.48H1091.96V4.31998H1099.35V17.616H1101.9L1110.78 4.31998H1119.8L1108.76 20.928L1120.91 36.48Z" fill="#E5E2D6"/>
</svg>
