<svg width="1073" height="69" viewBox="0 0 1073 69" fill="none" xmlns="http://www.w3.org/2000/svg">
<path d="M-0.000155762 54.6699V5.66992H3.00984L22.8898 52.5699H22.9598L42.8398 5.66992H45.8498V54.6699H43.6798V13.1599C43.6798 11.7599 43.7498 10.3599 43.7498 8.95992H43.6098L24.2198 54.6699H21.6298L2.23984 8.95992H2.09984C2.09984 10.3599 2.16984 11.7599 2.16984 13.1599V54.6699H-0.000155762ZM83.3037 43.1899C81.3437 50.8899 75.1837 55.1599 67.8337 55.1599C60.4137 55.1599 55.5137 50.7499 55.5137 43.7499C55.5137 37.5199 59.4337 32.4099 68.9537 32.4099H74.8337C81.0637 32.4099 83.4437 30.3799 83.4437 26.4599C83.4437 20.9299 78.6837 17.4999 71.9637 17.4999C64.9637 17.4999 59.9237 21.2799 59.2237 28.6299H56.9837C57.6837 20.0899 63.8437 15.6799 71.9637 15.6799C80.1537 15.6799 85.5437 20.1599 85.5437 26.9499V49.8399C85.5437 51.8699 86.5237 52.7799 88.1337 52.7799H90.0937V54.6699H87.9937C84.9837 54.6699 83.4437 53.0599 83.4437 49.9799V43.1899H83.3037ZM57.8237 43.7499C57.8237 49.0699 60.9737 53.3399 68.1137 53.3399C75.6037 53.3399 83.4437 48.6499 83.4437 36.7499V29.9599H83.3037C82.3237 32.4799 79.5937 34.2299 74.7637 34.2299H69.0937C60.7637 34.2299 57.8237 38.6399 57.8237 43.7499ZM110.487 55.1599C101.387 55.1599 95.3672 49.6999 95.3672 41.9299H97.6072C97.6072 49.1399 103.067 53.3399 110.487 53.3399C117.417 53.3399 121.827 49.6299 121.827 44.0999C121.827 38.9899 118.047 35.6999 112.097 35.6999H107.127C100.687 35.6999 96.2772 32.4099 96.2772 26.5999C96.2772 20.2999 101.457 15.6799 109.787 15.6799C118.397 15.6799 123.647 20.4399 123.647 28.6299H121.407C121.407 21.4899 117.137 17.4999 109.787 17.4999C102.787 17.4999 98.5872 21.2799 98.5872 26.4599C98.5872 31.0099 101.807 33.5999 107.477 33.5999H112.447C119.167 33.5999 124.137 37.5899 124.137 43.9599C124.137 50.5399 118.677 55.1599 110.487 55.1599ZM144.361 54.6699C139.881 54.6699 137.641 51.8699 137.641 47.8799V18.0599H128.541V16.1699H137.641V5.66992H139.741V16.1699H152.621V18.0599H139.741V47.1799C139.741 50.8199 141.211 52.7799 145.061 52.7799H152.971V54.6699H144.361ZM173.857 55.1599C163.077 55.1599 155.797 47.3199 155.797 35.4199C155.797 23.0299 163.217 15.6799 173.857 15.6799C184.847 15.6799 191.147 23.5899 191.147 34.1599V35.6299H158.247C158.247 46.6899 164.757 53.3399 173.857 53.3399C181.067 53.3399 186.807 49.2099 188.487 42.8399H190.797C189.257 49.9799 182.677 55.1599 173.857 55.1599ZM158.247 33.8099H188.767C188.697 24.5699 183.097 17.4999 173.857 17.4999C164.477 17.4999 158.247 24.7799 158.247 33.8099ZM200.425 54.6699V16.1699H202.455V24.9899H202.595C204.135 19.3899 207.635 16.1699 214.005 16.1699H217.015V18.0599H213.165C206.725 18.0599 202.525 22.5399 202.525 30.8699V54.6699H200.425ZM223.667 54.6699V16.1699H225.767V54.6699H223.667ZM223.457 8.32992V5.10992H225.977V8.32992H223.457ZM237.68 54.6699V16.1699H239.71V27.1599H239.85C242.09 19.6699 247.76 15.6799 254.41 15.6799C262.46 15.6799 266.94 21.4199 266.94 30.3799V54.6699H264.84V31.0099C264.84 20.8599 259.52 17.4999 253.85 17.4999C246.78 17.4999 239.78 22.8199 239.78 32.9699V54.6699H237.68ZM287.376 68.6699C279.536 68.6699 275.896 64.2599 275.896 59.2899C275.896 55.0199 278.556 51.4499 282.756 50.6799V50.5399C279.186 49.7699 277.366 47.5999 277.366 44.8699C277.366 41.8599 279.536 39.6899 284.226 39.9699L286.396 40.1099V39.9699C280.166 38.2899 276.946 33.5999 276.946 28.2799C276.946 20.4399 283.386 15.6799 291.856 15.6799C296.266 15.6799 300.116 16.9399 302.846 19.3199H302.986C303.406 17.2899 304.596 16.1699 306.556 16.1699H310.126V18.0599H306.556C304.946 18.0599 303.966 18.7599 303.476 19.9499C305.576 22.0499 306.766 24.8499 306.766 28.2799C306.766 36.1199 300.326 40.8799 291.856 40.8799H284.086C281.356 40.8799 279.466 42.3499 279.466 44.6599C279.466 47.0399 281.496 48.8599 285.066 48.8599H299.626C306.626 48.8599 310.826 53.2699 310.826 58.7999C310.826 64.3299 306.626 68.6699 299.346 68.6699H287.376ZM278.206 58.7999C278.206 63.6299 281.286 66.8499 287.586 66.8499H299.136C304.876 66.8499 308.516 63.5599 308.516 58.7999C308.516 54.0399 304.876 50.6799 299.416 50.6799H287.306C281.146 50.6799 278.206 54.1099 278.206 58.7999ZM279.256 28.2799C279.256 35.2099 284.646 39.0599 291.856 39.0599C299.066 39.0599 304.456 34.9999 304.456 28.2799C304.456 21.5599 299.066 17.4999 291.856 17.4999C284.646 17.4999 279.256 21.3499 279.256 28.2799ZM349.078 54.6699V7.62992H331.158V5.66992H369.238V7.62992H351.318V54.6699H349.078ZM375.22 54.6699V16.1699H377.32V54.6699H375.22ZM375.01 8.32992V5.10992H377.53V8.32992H375.01ZM389.233 54.6699V16.1699H391.263V26.7399H391.403C393.083 20.5099 397.073 15.6799 404.283 15.6799C411.493 15.6799 415.063 20.5099 415.903 27.1599H416.043C417.303 20.5799 421.993 15.6799 428.993 15.6799C436.623 15.6799 440.893 21.5599 440.893 30.3799V54.6699H438.793V31.0099C438.793 21.5599 434.313 17.4999 428.433 17.4999C421.643 17.4999 416.113 22.7499 416.113 32.8999V54.6699H414.013V31.0099C414.013 21.5599 409.813 17.4299 403.863 17.4299C397.143 17.4299 391.333 22.8199 391.333 32.9699V54.6699H389.233ZM471.011 55.2299C462.961 55.2299 456.941 50.1199 454.771 41.9299H454.631C454.701 44.1699 454.701 45.1499 454.701 46.4799V54.6699H452.671V-7.93934e-05H454.771V24.3599C454.771 25.6899 454.771 26.6699 454.631 28.9099H454.771C456.941 20.7199 462.961 15.6099 471.011 15.6099C480.391 15.6099 488.441 22.8199 488.441 35.4899C488.441 48.1599 480.391 55.2299 471.011 55.2299ZM454.631 35.4899C454.631 46.5499 461.911 53.4099 470.521 53.4099C479.131 53.4099 486.131 46.5499 486.131 35.4899C486.131 24.3599 479.131 17.4299 470.521 17.4299C461.911 17.4299 454.631 24.0099 454.631 35.4899ZM513.808 55.1599C503.028 55.1599 495.748 47.3199 495.748 35.4199C495.748 23.0299 503.168 15.6799 513.808 15.6799C524.798 15.6799 531.098 23.5899 531.098 34.1599V35.6299H498.198C498.198 46.6899 504.708 53.3399 513.808 53.3399C521.018 53.3399 526.758 49.2099 528.438 42.8399H530.748C529.208 49.9799 522.628 55.1599 513.808 55.1599ZM498.198 33.8099H528.718C528.648 24.5699 523.048 17.4999 513.808 17.4999C504.428 17.4999 498.198 24.7799 498.198 33.8099ZM540.376 54.6699V16.1699H542.406V24.9899H542.546C544.086 19.3899 547.586 16.1699 553.956 16.1699H556.966V18.0599H553.116C546.676 18.0599 542.476 22.5399 542.476 30.8699V54.6699H540.376ZM578.142 55.1599C567.152 55.1599 559.732 47.3899 559.732 35.4199C559.732 23.7999 566.592 15.6799 578.142 15.6799C588.642 15.6799 594.382 22.5399 595.152 30.8699H592.912C592.352 23.7299 587.172 17.4999 578.142 17.4999C568.132 17.4999 562.042 24.9199 562.042 35.4199C562.042 46.4799 569.042 53.3399 578.142 53.3399C587.102 53.3399 592.072 46.4099 592.912 40.7399H595.152C594.242 48.2999 588.292 55.1599 578.142 55.1599ZM604.155 54.6699V16.1699H606.185V24.9899H606.325C607.865 19.3899 611.365 16.1699 617.735 16.1699H620.745V18.0599H616.895C610.455 18.0599 606.255 22.5399 606.255 30.8699V54.6699H604.155ZM651.438 43.1899C649.478 50.8899 643.318 55.1599 635.968 55.1599C628.548 55.1599 623.648 50.7499 623.648 43.7499C623.648 37.5199 627.568 32.4099 637.088 32.4099H642.968C649.198 32.4099 651.578 30.3799 651.578 26.4599C651.578 20.9299 646.818 17.4999 640.098 17.4999C633.098 17.4999 628.058 21.2799 627.358 28.6299H625.118C625.818 20.0899 631.978 15.6799 640.098 15.6799C648.288 15.6799 653.678 20.1599 653.678 26.9499V49.8399C653.678 51.8699 654.658 52.7799 656.268 52.7799H658.228V54.6699H656.128C653.118 54.6699 651.578 53.0599 651.578 49.9799V43.1899H651.438ZM625.958 43.7499C625.958 49.0699 629.108 53.3399 636.248 53.3399C643.738 53.3399 651.578 48.6499 651.578 36.7499V29.9599H651.438C650.458 32.4799 647.728 34.2299 642.898 34.2299H637.228C628.898 34.2299 625.958 38.6399 625.958 43.7499ZM667.223 11.6899C667.223 4.19992 670.443 -7.93934e-05 677.443 -7.93934e-05H683.323V1.88992H677.793C671.633 1.88992 669.323 5.10992 669.323 12.0399V16.1699H680.523V18.0599H669.323V54.6699H667.223V18.0599H660.923V16.1699H667.223V11.6899ZM700.669 54.6699C696.189 54.6699 693.949 51.8699 693.949 47.8799V18.0599H684.849V16.1699H693.949V5.66992H696.049V16.1699H708.929V18.0599H696.049V47.1799C696.049 50.8199 697.519 52.7799 701.369 52.7799H709.279V54.6699H700.669ZM742.873 55.1599C734.053 55.1599 728.523 49.9799 729.573 41.9299H731.813C730.903 48.9999 735.173 53.3399 742.873 53.3399C750.783 53.3399 755.823 48.7899 755.823 42.7699C755.823 38.1499 752.883 35.6999 747.003 35.6999H743.433C737.133 35.6999 733.563 33.1799 733.563 27.6499C733.563 20.6499 739.303 15.6799 748.053 15.6799C757.923 15.6799 761.563 21.8399 760.653 28.6299H758.413C759.043 21.8399 756.033 17.4999 748.053 17.4999C740.353 17.4999 735.803 21.5599 735.803 27.2999C735.803 31.7099 738.463 33.5999 744.063 33.5999H747.633C754.143 33.5999 758.063 36.6799 758.063 42.4199C758.063 49.4899 752.113 55.1599 742.873 55.1599ZM765.046 54.6699L773.236 16.1699H775.406L767.216 54.6699H765.046ZM774.706 8.32992L775.406 5.10992H777.926L777.226 8.32992H774.706ZM779.197 54.6699L787.387 16.1699H789.417L787.037 27.1599H787.177C791.097 19.5999 797.537 15.6799 804.117 15.6799C812.167 15.6799 815.527 21.4899 813.637 30.4499L808.527 54.6699H806.357L811.397 30.9399C813.567 20.7899 809.017 17.4999 803.417 17.4999C796.277 17.4999 788.087 22.8899 785.917 33.0399L781.367 54.6699H779.197ZM836.311 55.1599C827.001 55.1599 821.471 49.5599 821.471 40.1099C821.471 27.7199 830.571 15.6799 844.501 15.6799C853.741 15.6799 859.271 20.9299 858.361 30.8699H856.121C857.101 24.0799 853.531 17.4999 844.361 17.4999C832.041 17.4999 823.781 29.1199 823.781 39.9699C823.781 48.5099 828.891 53.3399 836.521 53.3399C845.341 53.3399 851.781 46.3399 853.881 40.7399H856.261C853.741 48.3699 846.461 55.1599 836.311 55.1599ZM878.41 55.1599C869.38 55.1599 863.99 49.6999 863.99 40.1799C863.99 27.7199 873.3 15.6799 886.53 15.6799C898.15 15.6799 901.93 24.8499 900.04 34.2299L899.76 35.6299H866.79C864.97 44.5199 867.77 53.3399 878.62 53.3399C885.83 53.3399 892.41 49.1399 895.42 42.8399H897.87C894.79 50.0499 887.23 55.1599 878.41 55.1599ZM867.14 33.8099H897.8C899.34 26.3899 897.03 17.4999 886.46 17.4999C877.01 17.4999 869.24 24.8499 867.14 33.8099ZM942.023 5.66992L931.593 54.6699H929.493L938.033 14.6999L937.823 14.7699C936.633 17.7799 934.043 20.0899 929.143 20.0899H925.713L926.133 18.0599H929.493C934.533 18.0599 937.893 15.6799 939.293 8.88992L939.993 5.66992H942.023ZM970.516 5.10992C979.616 5.10992 984.796 10.5699 984.796 21.4899C984.796 34.1599 977.936 55.2299 959.946 55.2299C950.636 55.2299 945.316 49.3499 946.996 40.3199H949.166C947.556 47.5299 951.546 53.4099 960.086 53.4099C970.026 53.4099 978.216 45.7099 981.576 29.9599C981.996 27.8599 982.416 25.4799 982.556 22.8199H982.486C979.616 32.6899 972.336 38.1499 963.446 38.1499C954.976 38.1499 949.306 33.1099 949.306 24.8499C949.306 14.2799 958.616 5.10992 970.516 5.10992ZM951.616 24.9199C951.616 32.1299 956.446 36.3299 963.936 36.3299C974.576 36.3299 982.416 27.5799 982.416 18.6899C982.416 11.5499 977.376 6.92992 969.956 6.92992C959.946 6.92992 951.616 15.4699 951.616 24.9199ZM1003.69 55.1599C995.29 55.1599 989.2 51.2399 989.2 43.8899C989.2 36.2599 995.43 30.4499 1004.18 28.8399V28.6999C998.79 27.4399 996.13 24.0099 996.13 19.2499C996.13 10.9199 1004.67 5.17992 1014.12 5.17992C1021.68 5.17992 1027.14 8.67992 1027.14 15.1899C1027.14 21.6299 1022.03 27.0199 1014.26 28.6999V28.8399C1020.42 30.0999 1023.78 33.6699 1023.78 39.2699C1023.78 48.7199 1014.4 55.1599 1003.69 55.1599ZM991.44 44.0299C991.44 50.2599 996.62 53.3399 1003.9 53.3399C1013.14 53.3399 1021.47 47.8099 1021.47 39.2699C1021.47 32.6899 1016.36 29.6099 1009.15 29.6099C999 29.6099 991.44 35.9799 991.44 44.0299ZM998.37 19.3899C998.37 25.1999 1002.92 27.9299 1009.29 27.9299C1017.76 27.9299 1024.83 22.6799 1024.83 15.4699C1024.83 9.79992 1020.35 6.99992 1013.98 6.99992C1005.51 6.99992 998.37 11.9699 998.37 19.3899ZM1047.4 55.1599C1038.16 55.1599 1033.19 49.5599 1033.19 39.0599C1033.19 27.4399 1039.49 5.17992 1057.83 5.17992C1067.14 5.17992 1072.04 10.7799 1072.04 20.9999C1072.04 32.8999 1065.81 55.1599 1047.4 55.1599ZM1035.5 39.0599C1035.5 48.5799 1039.77 53.3399 1047.61 53.3399C1063.99 53.3399 1069.73 31.7099 1069.73 20.9999C1069.73 11.6199 1065.39 6.99992 1057.69 6.99992C1041.24 6.99992 1035.5 28.0699 1035.5 39.0599Z" fill="#E5E2D6"/>
</svg>
