<?xml version="1.0" encoding="UTF-8"?>
<svg id="Layer_1" data-name="Layer 1" xmlns="http://www.w3.org/2000/svg" viewBox="825 447 182 158">
    <defs>
        <style>
            .cls-1 {
                fill: #EB7D66;
            }

            .cls-2 {
                fill: #EB7D66;
            }

            .cls-3 {
                fill: #EB7D66;
            }
        </style>
    </defs>
    <g>
        <g>
            <path class="cls-2"
                d="M81.2,485.15h20.25v61.69h.27l25.95-30.3h23.64l-26.5,29.21,29.49,45.52h-25l-18.21-30.57h-.27l-9.38,10.46v20.11h-20.25v-106.12Z" />
            <path class="cls-2"
                d="M151.04,553.9c0-25.54,15.49-39.81,37.1-39.81s36.42,12.37,36.42,37.5v7.75h-52.04c.41,11.82,6.66,19.02,16.17,19.02,7.2,0,12.09-3.94,14-10.06h20.65c-3.26,15.08-16.17,25.41-35.06,25.41-22.15,0-37.23-14.4-37.23-39.81ZM204.31,545.61c0-9.38-5.3-16.17-15.49-16.17s-15.63,7.07-16.17,16.17h31.66Z" />
            <path class="cls-2" d="M237.33,485.15h20.25v106.12h-20.25v-106.12Z" />
            <path class="cls-2"
                d="M268.45,516.53h21.74l16.44,48.24h.27l16.58-48.24h21.74l-27.99,74.73h-20.79l-27.99-74.73Z" />
            <path class="cls-2"
                d="M348.75,553.9c0-25.54,15.49-39.81,37.1-39.81s36.42,12.37,36.42,37.5v7.75h-52.04c.41,11.82,6.66,19.02,16.17,19.02,7.2,0,12.09-3.94,14-10.06h20.65c-3.26,15.08-16.17,25.41-35.06,25.41-22.15,0-37.23-14.4-37.23-39.81ZM402.01,545.61c0-9.38-5.3-16.17-15.49-16.17s-15.63,7.07-16.17,16.17h31.66Z" />
            <path class="cls-2"
                d="M435.04,516.53h19.97v9.92h.27c4.62-8.15,12.37-12.37,21.88-12.37,14.81,0,25.41,9.78,25.41,29.08v48.1h-20.25v-45.66c0-11.01-4.89-16.03-12.64-16.03-7.2,0-14.4,4.62-14.4,17.53v44.16h-20.25v-74.73Z" />
            <path class="cls-2"
                d="M515.48,553.9c0-25.54,15.49-39.81,37.1-39.81s36.42,12.37,36.42,37.5v7.75h-52.04c.41,11.82,6.66,19.02,16.17,19.02,7.2,0,12.09-3.94,14-10.06h20.65c-3.26,15.08-16.17,25.41-35.06,25.41-22.15,0-37.23-14.4-37.23-39.81ZM568.74,545.61c0-9.38-5.3-16.17-15.49-16.17s-15.63,7.07-16.17,16.17h31.66Z" />
            <path class="cls-2"
                d="M597.82,553.9c0-25.54,15.49-39.81,37.1-39.81s36.42,12.37,36.42,37.5v7.75h-52.04c.41,11.82,6.66,19.02,16.17,19.02,7.2,0,12.09-3.94,14-10.06h20.65c-3.26,15.08-16.17,25.41-35.06,25.41-22.15,0-37.23-14.4-37.23-39.81ZM651.09,545.61c0-9.38-5.3-16.17-15.49-16.17s-15.63,7.07-16.17,16.17h31.66Z" />
            <path class="cls-2"
                d="M684.11,516.53h19.97v11.01h.27c3.67-7.34,8.7-11.01,17.39-11.01h7.34v15.9h-11.41c-9.1,0-13.32,4.35-13.32,15.22v43.62h-20.25v-74.73Z" />
            <path class="cls-2"
                d="M732.62,566.54h20.92c.14,8.29,5.3,11.82,13.32,11.82s12.5-3.8,12.5-9.65c0-5.16-3.53-8.56-11.96-8.56h-8.15c-16.17,0-25.27-8.56-25.27-21.47,0-14.67,12.37-24.59,32.61-24.59,21.33,0,32.75,10.73,33.02,26.63h-20.38c-.14-7.34-4.35-11.28-12.37-11.28-7.34,0-11.55,3.12-11.55,8.42,0,5.03,3.67,7.61,10.33,7.61h8.97c18.62,0,26.36,10.05,26.36,22.56,0,15.22-11.69,25.68-33.97,25.68s-34.11-10.6-34.38-27.18Z" />
        </g>
        <g>
            <path class="cls-3"
                d="M903.9,604.39c-43.39,0-78.69-35.3-78.69-78.68s35.3-78.69,78.69-78.69,78.69,35.3,78.69,78.69-35.3,78.68-78.69,78.68M903.9,454.87c-39.06,0-70.84,31.78-70.84,70.84s31.78,70.83,70.84,70.83,70.84-31.78,70.84-70.83-31.78-70.84-70.84-70.84" />
            <polygon class="cls-2" points="904.3 512.89 929.46 480.99 920.42 473.95 895.26 505.85 904.3 512.89" />
            <polygon class="cls-2" points="917.26 518.58 927.63 520.35 932.71 491.93 922.34 490.16 917.26 518.58" />
            <polygon class="cls-2" points="896.72 513.94 879.61 487.96 871.23 494.46 888.34 520.43 896.72 513.94" />
            <polygon class="cls-2" points="907.53 482.45 885.51 475.37 882.66 485.56 904.68 492.63 907.53 482.45" />
            <polygon class="cls-2" points="857.66 519.22 893.11 541.99 899.34 532.78 863.89 510.01 857.66 519.22" />
            <polygon class="cls-2"
                points="950.15 516.55 943.53 507.68 910.77 534.07 910.77 515.57 899.59 515.57 899.59 577.45 910.77 577.45 910.77 548.28 950.15 516.55" />
        </g>
    </g>
    <g>
        <path class="cls-1"
            d="M1005.96,461.07c-.43-5.91-6.02-14.35-16.19-13.81-7.2.39-14.19,6.95-14.13,15.39.05,6.82,5.87,15.09,15.25,14.92,7.92.23,15.78-6.77,15.07-16.5ZM990.89,474.63c-6.65.08-12.18-5.38-12.23-12.1-.05-6.63,5.27-12.18,11.77-12.28,6.82-.1,12.48,5.19,12.55,11.75.08,7.06-5.17,12.54-12.09,12.63Z" />
        <path class="cls-1"
            d="M993.29,468.71l-2.7-4.02h-2.17v4.02h-2.77v-12.58h5.75c1.5,0,2.66.37,3.5,1.1.83.73,1.25,1.75,1.25,3.05v.04c0,1.02-.25,1.85-.75,2.49-.5.64-1.15,1.11-1.95,1.41l3.07,4.49h-3.23ZM993.34,460.43c0-.6-.19-1.05-.57-1.35-.38-.3-.92-.45-1.6-.45h-2.75v3.61h2.8c.68,0,1.21-.16,1.57-.48.37-.32.55-.75.55-1.29v-.04Z" />
    </g>
</svg>